<svg width="826" height="80" viewBox="0 0 826 80" fill="none" xmlns="http://www.w3.org/2000/svg">
<path d="M29.8656 77.96C25.4496 77.96 21.4496 77.256 17.8656 75.848C14.2816 74.376 11.2096 72.264 8.64963 69.512C6.08963 66.696 4.10563 63.24 2.69763 59.144C1.28963 54.984 0.585625 50.248 0.585625 44.936V40.904C0.585625 35.848 1.28963 31.336 2.69763 27.368C4.10563 23.4 6.08963 20.04 8.64963 17.288C11.2096 14.536 14.2816 12.456 17.8656 11.048C21.5136 9.576 25.5136 8.84 29.8656 8.84C33.8336 8.84 37.3856 9.416 40.5216 10.568C43.7216 11.656 46.4736 13.192 48.7776 15.176C51.0816 17.16 52.9376 19.496 54.3456 22.184C55.7536 24.872 56.7136 27.784 57.2256 30.92H44.7456C43.7856 27.528 42.0896 24.776 39.6576 22.664C37.2256 20.488 33.9616 19.4 29.8656 19.4C24.7456 19.4 20.5856 21.192 17.3856 24.776C14.2496 28.296 12.6816 33.672 12.6816 40.904V44.936C12.6816 48.776 13.0976 52.104 13.9296 54.92C14.8256 57.736 16.0096 60.072 17.4816 61.928C19.0176 63.784 20.8416 65.16 22.9536 66.056C25.0656 66.952 27.3696 67.4 29.8656 67.4C33.8976 67.4 37.0976 66.28 39.4656 64.04C41.8976 61.8 43.5936 58.76 44.5536 54.92H57.2256C56.7136 58.312 55.7536 61.416 54.3456 64.232C52.9376 67.048 51.0816 69.48 48.7776 71.528C46.4736 73.576 43.7216 75.176 40.5216 76.328C37.3856 77.416 33.8336 77.96 29.8656 77.96ZM82.6319 9.8H96.0719L120.072 77H107.784L102.216 60.2H75.8159L70.1519 77H58.6319L82.6319 9.8ZM98.7599 49.64L89.2559 20.84H89.0639L79.3679 49.64H98.7599ZM127.767 9.8H170.967V20.36H139.287V37.16H165.207V47.72H139.287V66.44H170.967V77H127.767V9.8ZM192.791 52.52L177.143 29H190.007L199.799 44.072L209.783 29H222.263L206.615 52.136L223.223 77H210.167L199.607 60.584L188.855 77H176.183L192.791 52.52ZM246.455 77L246.647 75.848L254.423 72.776L266.999 8.168L260.375 5.192L260.663 4.04H276.119L288.407 66.728L324.695 4.04H338.999L338.711 5.192L330.935 8.168L318.359 72.776L324.983 75.848L324.791 77H302.231L302.423 75.848L310.199 72.776L321.239 16.136L285.815 77H281.783L269.687 17L258.839 72.776L265.367 75.848L265.175 77H246.455ZM352.247 78.056C340.439 78.056 334.391 69.608 334.391 58.76C334.391 41.768 347.543 26.6 362.327 26.6C373.079 26.6 379.799 34.184 377.207 47.24L376.727 49.544H342.359L342.263 50.504C339.479 64.52 345.239 74.696 355.799 74.696C363.095 74.696 370.391 69.512 376.151 60.104H377.975C372.791 70.28 363.575 78.056 352.247 78.056ZM343.319 46.376H370.007C371.927 36.584 368.759 30.056 361.175 30.056C353.207 30.056 346.007 37.064 343.319 46.376ZM401.863 78.056C395.143 78.056 391.495 74.504 389.191 70.472L383.815 77H382.087L396.103 5.096L390.247 3.848L390.439 2.696L402.727 0.199999H404.071L398.887 26.6C418.375 26.6 426.055 36.968 426.055 48.776C426.055 64.136 414.535 78.056 401.863 78.056ZM390.727 68.456C392.935 71.528 396.679 74.312 401.479 74.312C410.503 74.312 418.759 62.312 418.759 49.352C418.759 38.312 412.423 29.192 398.407 29.192L390.727 68.456ZM449.747 78.056C437.939 78.056 431.891 69.608 431.891 58.76C431.891 41.768 445.043 26.6 459.827 26.6C470.579 26.6 477.299 34.184 474.707 47.24L474.227 49.544H439.859L439.763 50.504C436.979 64.52 442.739 74.696 453.299 74.696C460.595 74.696 467.891 69.512 473.651 60.104H475.475C470.291 70.28 461.075 78.056 449.747 78.056ZM440.819 46.376H467.507C469.427 36.584 466.259 30.056 458.675 30.056C450.707 30.056 443.507 37.064 440.819 46.376ZM474.691 77L474.883 75.848L481.507 73.736L494.851 5.096L488.899 3.848L489.091 2.696L501.475 0.199999H502.819L488.515 73.736L494.275 75.848L494.083 77H474.691ZM554.807 79.496C550.103 76.52 545.591 73.256 541.079 69.512C534.551 74.792 526.199 78.152 518.519 78.152C508.343 78.152 501.047 72.296 501.047 63.464C501.047 50.888 513.623 43.784 519.575 40.424C518.519 37.064 517.943 33.704 517.943 30.056C517.943 15.08 527.831 3.272 540.599 3.272C548.567 3.272 553.367 7.784 553.367 14.024C553.367 27.656 534.359 34.856 525.527 39.368C528.119 48.584 533.879 57.512 541.271 65.672C549.335 58.376 554.327 47.336 547.991 34.184H549.623C556.535 46.664 551.927 59.336 543.095 67.688C547.223 71.816 551.831 75.944 556.439 79.496H554.807ZM508.151 62.888C508.151 70.184 513.239 74.504 520.535 74.504C526.103 74.504 533.015 72.008 538.775 67.592C530.711 60.2 523.703 51.752 520.247 42.44C512.663 47.816 508.151 55.592 508.151 62.888ZM523.991 29.768C523.991 32.456 524.471 35.144 525.047 37.64C535.895 31.784 547.031 24.584 547.031 14.024C547.031 9.128 543.863 6.44 539.543 6.44C531.479 6.44 523.991 17.576 523.991 29.768ZM558.268 77L558.46 75.848L566.236 72.776L578.812 8.168L572.188 5.192L572.476 4.04H603.868C623.548 4.04 635.068 14.984 635.068 32.072C635.068 57.704 615.292 77 588.988 77H558.268ZM574.396 73.16H587.74C609.436 73.16 625.756 55.88 625.756 32.744C625.756 17.48 616.252 7.496 599.74 7.496H587.164L574.396 73.16ZM656.466 78.056C644.658 78.056 638.61 69.608 638.61 58.76C638.61 41.768 651.762 26.6 666.546 26.6C677.298 26.6 684.018 34.184 681.426 47.24L680.946 49.544H646.578L646.482 50.504C643.698 64.52 649.458 74.696 660.018 74.696C667.314 74.696 674.61 69.512 680.37 60.104H682.194C677.01 70.28 667.794 78.056 656.466 78.056ZM647.538 46.376H674.226C676.146 36.584 672.978 30.056 665.394 30.056C657.426 30.056 650.226 37.064 647.538 46.376ZM705.41 78.056C693.89 78.056 687.266 69.8 687.266 58.664C687.266 41.288 700.61 26.6 716.162 26.6C724.706 26.6 729.506 30.824 731.426 34.088L722.21 50.504H720.386C721.538 48.296 724.322 42.824 724.322 38.12C724.322 32.936 721.154 29.96 715.298 29.96C703.682 29.96 694.37 42.248 694.37 57.608C694.37 67.88 699.746 74.696 707.522 74.696C715.778 74.696 722.594 69.608 728.45 60.104H730.274C725.186 70.088 716.834 78.056 705.41 78.056ZM753.801 78.056C740.265 78.056 735.081 67.496 735.081 57.512C735.081 41.768 748.137 26.6 764.169 26.6C777.897 26.6 782.505 36.584 782.505 45.896C782.505 61.64 769.737 78.056 753.801 78.056ZM742.185 56.744C742.185 66.344 746.889 74.696 755.721 74.696C765.513 74.696 774.921 60.392 774.921 46.184C774.921 37.256 770.985 29.96 762.537 29.96C751.785 29.96 742.185 42.632 742.185 56.744ZM782.296 77L782.488 75.848L789.208 73.736L797.08 32.936L791.032 31.688L791.32 30.536L803.992 28.04H804.952L802.552 40.52H802.648C805.432 34.952 810.904 26.6 817.816 26.6C822.616 26.6 824.344 30.728 825.112 32.648L816.568 47.912H814.936C815.704 46.184 818.584 39.848 818.584 35.816C818.584 33.224 817.528 31.592 815.224 31.592C809.944 31.592 804.184 41 800.92 48.968L796.12 73.736L801.976 75.848L801.688 77H782.296Z" fill="#F2632A"/>
</svg>
