<svg width="1720" height="146" viewBox="0 0 1720 146" fill="none" xmlns="http://www.w3.org/2000/svg">
<path d="M225.685 25.0321C234.075 46.5507 272.054 140.595 272.054 140.595H244.528L235.629 117.964H163.71L155.077 140.595H131.2L174.923 36.4354C178.757 27.4456 181.43 19.6499 176.799 11.0635C176.799 11.0635 183.548 3.5645 195.953 3.5645C208.253 3.5645 219.368 8.83083 225.685 25.0321ZM228.579 100.035L199.122 25.1179L170.544 100.035H228.579ZM71.9459 20.6847C94.8796 20.6847 107.931 32.6202 115.338 43.1464C119.537 40.1342 125.474 33.6668 125.474 25.2461C125.474 13.9019 113.223 3.56396 84.296 3.56396C38.1963 3.56396 1.91321 35.2761 1.91321 76.0143C1.91321 107.388 24.5565 142.436 73.3677 142.436C104.757 142.436 122.908 126.123 122.908 126.123L125.389 109.693C117.719 114.412 102.766 121.539 82.3469 121.539C44.3132 121.539 27.1187 95.0261 27.1187 67.9285C27.1187 35.355 51.3094 20.6847 71.9459 20.6847ZM505.412 140.189L466.548 92.6722L492.732 60.9307C499.855 52.2993 496.692 41.8374 485.079 41.8374C477.89 41.8374 472.288 46.1977 472.288 46.1977C472.288 46.1977 473.835 54.2991 465.335 64.7251L454.297 77.688L431.977 50.3976C427.735 45.2724 423.512 41.8369 416.272 41.8369C406.754 41.8369 401.789 49.0741 401.789 49.0741C401.789 49.0741 406.777 53.6216 419.096 69.2989L439.453 95.1157L401.07 140.189H427.35L451.71 110.659L474.994 140.189H505.412ZM344.15 22.3376C367.086 22.3376 379.92 28.9187 384.245 31.6385C387.253 28.7953 390.974 24.1518 390.974 18.5427C390.974 10.8463 384.866 5.86104 374.989 5.86104H285.043C289.013 11.8666 289.914 21.8343 289.914 29.5458L289.791 140.189H386.054L388.745 122.38H314.583V81.0453H366.403L369.177 63.1173H314.583V22.3381L344.15 22.3376Z" fill="#2D2E46"/>
<path d="M1674.34 51.1488C1681.5 44.0208 1691.34 40.5978 1701.77 40.5978H1713.7V61.6203H1701.77C1695.36 61.6203 1688.51 62.9951 1683.57 67.2848C1679.29 71.0011 1677.35 76.143 1677.19 81.7109V139.779H1655.2V42.0825H1673.13L1674.34 51.1488ZM1618 94.456V87.4188C1618 72.489 1611.08 61.6191 1595.1 61.6191C1578.93 61.6191 1572.21 72.3039 1572.21 87.4188V94.456C1572.21 109.39 1579.12 120.243 1595.1 120.243C1611.26 120.243 1618 109.568 1618 94.456ZM1549.47 94.456V87.4188C1549.47 74.8854 1552.95 62.3929 1561.97 53.2256C1570.73 44.3029 1582.73 40.5972 1595.1 40.5972C1607.48 40.5972 1619.52 44.2152 1628.3 53.1531C1637.33 62.3325 1640.73 74.8814 1640.73 87.4182V94.4554C1640.73 106.986 1637.24 119.472 1628.24 128.637C1619.46 137.559 1607.48 141.264 1595.1 141.264C1582.72 141.264 1570.69 137.644 1561.9 128.709C1552.87 119.532 1549.47 106.989 1549.47 94.456ZM1457.77 94.456V87.4188C1457.77 74.9299 1461 62.2671 1469.93 53.0325C1478.51 44.1624 1490.3 40.5978 1502.48 40.5978C1512.47 40.5978 1522.23 43.1346 1530.09 49.4335C1536.92 54.9066 1541.35 62.4824 1543.35 70.9023L1544.1 74.028H1521.18L1520.51 72.4857C1517.05 64.4842 1510 61.6191 1501.53 61.6191C1495.7 61.6191 1490.3 63.3967 1486.42 67.825C1481.81 73.0823 1480.52 80.677 1480.52 87.4195V94.4567C1480.52 101.211 1481.88 108.711 1486.49 113.967C1490.36 118.376 1495.71 120.244 1501.53 120.244C1511.21 120.244 1517.41 116.917 1520.43 107.744L1521.01 105.988H1544.01L1543.36 109.05C1539.01 129.727 1523.82 141.266 1502.48 141.266C1490.3 141.266 1478.45 137.786 1469.86 128.904C1460.92 119.664 1457.77 106.944 1457.77 94.456ZM1382.85 79.3099H1425.49C1423.66 67.5549 1417.31 60.8822 1404.24 60.8822C1391.79 60.8822 1384.91 68.0918 1382.85 79.3099ZM1382.44 98.8467C1382.97 104.666 1384.72 110.599 1388.8 114.92C1392.86 119.223 1398.37 120.993 1404.24 120.993C1409.13 120.993 1414.76 120.423 1418.89 117.563C1422.36 115.156 1424.31 111.445 1425.8 107.617L1426.44 105.987H1448.57L1447.94 109.041C1443.27 131.652 1427 141.265 1404.24 141.265C1392.07 141.265 1380.42 137.43 1371.9 128.623C1363 119.428 1359.53 106.943 1359.53 94.4554V87.4175C1359.53 74.9332 1363.16 62.5466 1372.04 53.3755C1380.53 44.6091 1392.09 40.5966 1404.24 40.5966C1416.39 40.5966 1427.99 44.5227 1436.49 53.3069C1445.38 62.4919 1448.93 74.9286 1448.93 87.4175V98.846L1382.44 98.8467ZM1264.39 26.0572V118.757H1285.4C1312.6 118.757 1325.33 104.521 1325.33 77.9667V66.8488C1325.33 40.6658 1312.22 26.0572 1285.4 26.0572H1264.39ZM1241.65 5.03595H1285.4C1325.16 5.03595 1348.83 27.256 1348.83 66.8488V77.9667C1348.83 117.191 1324.79 139.779 1285.4 139.779H1241.65V5.03595ZM1129.13 53.8031C1133.19 50.7562 1137.65 46.9571 1140.25 42.8792C1141.99 40.1429 1142.68 37.6513 1142.68 34.438C1142.68 31.7749 1141.62 29.3359 1139.64 27.5393C1137.3 25.4251 1134.14 24.5725 1131.02 24.5725C1127.9 24.5725 1124.7 25.3914 1122.36 27.5317C1120.38 29.3353 1119.37 31.7838 1119.37 34.4374C1119.37 37.753 1119.69 40.3081 1121.22 43.2947C1122.15 45.1027 1123.36 46.8142 1124.6 48.4215C1126.04 50.267 1127.57 52.0535 1129.13 53.8031ZM1154.88 112.494L1125.15 81.7547C1121.23 84.8446 1117.24 88.634 1114.98 92.935C1113.26 96.2293 1112.81 99.3066 1112.81 102.965C1112.81 107.67 1114.72 111.946 1118.27 115.079C1122.51 118.816 1128.26 120.243 1133.83 120.243C1141.65 120.243 1149.01 117.498 1154.88 112.494ZM1170.36 128.337C1160.04 136.805 1147.35 141.266 1133.83 141.266C1122.29 141.266 1110.6 138.209 1101.89 130.393C1094.02 123.33 1090.07 113.629 1090.07 103.159C1090.07 96.3268 1091.38 90.2167 1094.77 84.1856C1098.64 77.2851 1104.7 71.4418 1110.98 66.515C1106.61 61.6185 1102.25 56.0908 1099.63 50.2194C1097.29 44.9757 1096.62 40.1162 1096.62 34.438C1096.62 25.9695 1099.74 18.0639 1106.06 12.2929C1112.85 6.09562 1121.94 3.56396 1131.02 3.56396C1140.13 3.56396 1149.27 6.06194 1156.06 12.2973C1162.35 18.076 1165.42 25.9873 1165.42 34.438C1165.42 40.7147 1163.75 46.3834 1160.5 51.7688C1156.39 58.5639 1150.14 64.3083 1143.69 69.0726L1167.1 93.7546C1168.94 88.0546 1169.83 82.1642 1169.83 76.1218V73.5787H1192.57V76.1218C1192.57 88.5225 1190.01 100.755 1184 111.659L1210.97 139.78H1181.41L1170.36 128.337ZM1019.63 111.175V6.20743H1041.62V109.327C1041.62 116.703 1044.22 120.679 1051.98 120.679H1060.34V140.952H1049.53C1030.39 140.952 1019.63 130.061 1019.63 111.175ZM939.087 80.4819H981.721C979.895 68.7242 973.553 62.0543 960.477 62.0543C948.019 62.0543 941.139 69.2637 939.093 80.4819H939.087ZM938.675 100.017C939.2 105.837 940.953 111.77 945.03 116.091C949.095 120.394 954.6 122.164 960.477 122.164C965.365 122.164 970.996 121.593 975.121 118.735C978.594 116.328 980.553 112.616 982.04 108.789L982.671 107.159H1004.81L1004.17 110.21C999.506 132.824 983.229 142.436 960.477 142.436C948.311 142.436 936.663 138.602 928.136 129.794C919.237 120.599 915.77 108.114 915.77 95.6267V88.5895C915.77 76.1019 919.396 63.7181 928.275 54.5463C936.763 45.7793 948.324 41.7674 960.477 41.7674C972.624 41.7674 984.225 45.6942 992.725 54.4777C1001.62 63.6647 1005.16 76.1012 1005.16 88.5895V100.017L938.675 100.017ZM841.392 87.314V95.6274C841.392 102.418 842.88 109.752 847.542 114.99C851.473 119.412 856.879 121.415 862.783 121.415C878.701 121.415 884.18 110.046 884.18 95.6274V88.5902C884.18 74.2676 878.595 62.7912 862.783 62.7912C857.045 62.7912 851.712 64.6831 847.781 68.8921C843.172 73.8289 841.538 80.7626 841.392 87.314ZM838.556 131.548L837.354 140.95H819.411V6.2068H841.392V50.2753C848.564 44.2724 857.775 41.7686 867.471 41.7686C878.468 41.7686 888.529 45.7526 895.788 54.0127C904.102 63.4684 906.931 76.3474 906.931 88.5902V95.6274C906.931 107.873 904.029 120.682 895.722 130.126C888.476 138.358 878.448 142.436 867.471 142.436C856.294 142.436 846.008 139.235 838.556 131.548ZM738.856 80.4812H781.491C779.671 68.7162 773.323 62.0536 760.24 62.0536C747.795 62.0536 740.908 69.2671 738.856 80.4812ZM738.444 100.017C738.969 105.836 740.722 111.769 744.8 116.09C748.864 120.394 754.369 122.163 760.24 122.163C765.134 122.163 770.766 121.593 774.89 118.734C778.363 116.327 780.316 112.615 781.803 108.788L782.441 107.158H804.581L803.951 110.209C799.282 132.823 782.992 142.436 760.24 142.436C748.08 142.436 736.432 138.599 727.912 129.793C719.013 120.598 715.547 108.111 715.547 95.6267V88.5888C715.547 76.1039 719.179 63.7175 728.058 54.5457C736.539 45.7824 748.094 41.7668 760.24 41.7668C772.393 41.7668 783.995 45.6891 792.495 54.4783C801.387 63.6641 804.933 76.1012 804.933 88.5882V100.015H738.438L738.444 100.017ZM596.073 40.8577V140.95H573.334V6.2068H602.617L637.113 77.8346L671.258 6.2068H700.173V140.95H677.434V40.5114L673.921 48.6959L647.188 104.834H626.323L599.389 48.6933L596.073 40.8577Z" fill="#F2612F"/>
</svg>
