<svg width="40.000000" height="40.000000" viewBox="0 0 40 40" fill="none" xmlns="http://www.w3.org/2000/svg" xmlns:xlink="http://www.w3.org/1999/xlink">
	<desc>
			Created with Pixso.
	</desc>
	<defs/>
	<path id="*" d="M15.9004 40C10.5957 40 13.8469 32.7572 19.1516 21.0699C8.54224 29.7942 2.5531 35.0618 0.328552 30.7819C-1.38263 26.6666 3.40869 25.1852 18.9805 20.0823C5.29102 14.6501 1.35529 13.1687 4.77765 9.05347C8.54224 4.77368 12.9913 11.0288 19.665 19.0946C18.9805 6.58435 18.8094 0 23.9429 0C29.2476 0 25.9963 7.40735 20.6917 19.0946C31.1299 10.3704 37.6324 4.77368 39.6859 9.05347C41.397 13.3334 36.2635 14.8148 20.6917 20.0823C34.7234 25.5144 38.6591 26.6666 35.2368 30.7819C31.1299 35.3909 27.0231 29.3004 20.1783 20.9054C20.8628 33.251 21.0339 40 15.9004 40Z" fill="#F2632A" fill-opacity="1.000000" fill-rule="evenodd"/>
</svg>
